# xmcd
#
# Track frame offsets:
#	150
#	17988
#	41708
#	65104
#	78937
#	98458
#	117331
#	144947
#	162672
#	175625
#	193403
#	210583
#	225391
#
# Disc length: 3321 seconds
#
# Revision: 0
# Processed by: cddbd v1.5.2PL0 Copyright (c) Steve Scherf et al.
# Submitted via: EasyCDDAExtractor 12.0.1.1
#
DISCID=ae0cf70d
DTITLE=Steve Ajao - Blues Giants
DYEAR=1999
DGENRE=Blues
TTITLE0=Messin' with The Kid
TTITLE1=Love That Woman
TTITLE2=Sweet Little Angel
TTITLE3=Crossroads
TTITLE4=Bright Lights
TTITLE5=I'm Comin' Home
TTITLE6=Boogie Chillun'
TTITLE7=Travellin' Man
TTITLE8=She Moves Me
TTITLE9=Hoochie Coochie Man
TTITLE10=Born under a Bad Sign
TTITLE11=Barefootin'
TTITLE12=Chitlin's Con Carne
EXTD=
EXTT0=
EXTT1=
EXTT2=
EXTT3=
EXTT4=
EXTT5=
EXTT6=
EXTT7=
EXTT8=
EXTT9=
EXTT10=
EXTT11=
EXTT12=
PLAYORDER=
